<svg xmlns="http://www.w3.org/2000/svg" viewBox="0 0 200 200" width="200" height="200">
  <defs>
    <linearGradient id="bgGrad" x1="0%" y1="0%" x2="100%" y2="100%">
      <stop offset="0%" style="stop-color:#667eea;stop-opacity:1" />
      <stop offset="100%" style="stop-color:#764ba2;stop-opacity:1" />
    </linearGradient>
    <linearGradient id="maskGrad" x1="0%" y1="0%" x2="100%" y2="100%">
      <stop offset="0%" style="stop-color:#4ecdc4;stop-opacity:1" />
      <stop offset="100%" style="stop-color:#ffd93d;stop-opacity:1" />
    </linearGradient>
  </defs>
  
  <!-- Background circle -->
  <circle cx="100" cy="100" r="95" fill="url(#bgGrad)" opacity="0.95"/>
  
  <!-- Theater masks (Comedy & Tragedy) -->
  <g transform="translate(100, 100)">
    <!-- Happy mask (left) -->
    <g transform="translate(-35, -10)">
      <ellipse cx="0" cy="0" rx="28" ry="32" fill="white" opacity="0.95"/>
      <!-- Eyes -->
      <ellipse cx="-10" cy="-8" rx="4" ry="6" fill="#667eea"/>
      <ellipse cx="10" cy="-8" rx="4" ry="6" fill="#667eea"/>
      <!-- Happy smile -->
      <path d="M -12 8 Q 0 18, 12 8" stroke="#667eea" stroke-width="3" fill="none" stroke-linecap="round"/>
    </g>
    
    <!-- Sad mask (right) -->
    <g transform="translate(35, 10)">
      <ellipse cx="0" cy="0" rx="28" ry="32" fill="white" opacity="0.95"/>
      <!-- Eyes -->
      <ellipse cx="-10" cy="-8" rx="4" ry="6" fill="#764ba2"/>
      <ellipse cx="10" cy="-8" rx="4" ry="6" fill="#764ba2"/>
      <!-- Sad frown -->
      <path d="M -12 12 Q 0 2, 12 12" stroke="#764ba2" stroke-width="3" fill="none" stroke-linecap="round"/>
    </g>
    
    <!-- Decorative elements -->
    <circle cx="-55" cy="-40" r="8" fill="#ffd93d" opacity="0.6"/>
    <circle cx="55" cy="35" r="10" fill="#4ecdc4" opacity="0.6"/>
    <circle cx="0" cy="-60" r="6" fill="#ff6b6b" opacity="0.6"/>
  </g>
  
  <!-- Border ring -->
  <circle cx="100" cy="100" r="95" fill="none" stroke="white" stroke-width="4" opacity="0.3"/>
</svg>
